<svg width="19" height="40" viewBox="0 0 19 40" fill="none" xmlns="http://www.w3.org/2000/svg">
<path d="M2.15876 12.6592C1.40446 12.6592 0.792969 13.2707 0.792969 14.025V16.6997H18.1499V14.025C18.1499 13.2707 17.5384 12.6592 16.7841 12.6592H15.4752V11.5211C15.4752 10.7668 14.8638 10.1553 14.1095 10.1553H12.516C11.7617 10.1553 11.1502 10.7668 11.1502 11.5211V12.6592H7.73575V11.5211C7.73575 10.7668 7.12426 10.1553 6.36996 10.1553H4.66272C3.90841 10.1553 3.29692 10.7668 3.29692 11.5211V12.6592H2.15876Z" fill="white"/>
<path fill-rule="evenodd" clip-rule="evenodd" d="M2.15876 29.8455C1.40445 29.8455 0.792969 29.234 0.792969 28.4797V18.4638H18.2068V28.4797C18.2068 29.234 17.5953 29.8455 16.841 29.8455H2.15876ZM4.09364 27.0001C3.8422 27.0001 3.63837 26.7962 3.63837 26.5448V21.2523H15.3045V26.5448C15.3045 26.7962 15.1007 27.0001 14.8493 27.0001H4.09364Z" fill="white"/>
</svg>
