<svg width="17" height="40" viewBox="0 0 17 40" fill="none" xmlns="http://www.w3.org/2000/svg">
<path fill-rule="evenodd" clip-rule="evenodd" d="M7.19666 11.3857H9.82896C10.3412 11.3857 10.8005 11.7012 10.9844 12.1793L11.744 14.1542L13.9474 13.6874C14.4485 13.5812 14.9632 13.7946 15.2422 14.2242L16.6758 16.4318C16.9548 16.8614 16.9404 17.4184 16.6396 17.833L15.0395 20.0383L16.6396 22.2437C16.9404 22.6582 16.9548 23.2153 16.6758 23.6448L15.2422 25.8525C14.9632 26.2821 14.4485 26.4955 13.9474 26.3893L11.7164 25.9166L10.9844 27.8198C10.8005 28.2979 10.3412 28.6133 9.82896 28.6133H7.19666C6.68445 28.6133 6.22513 28.2979 6.04126 27.8198L5.30733 25.9116L3.05266 26.3893C2.55157 26.4955 2.03685 26.2821 1.75788 25.8525L0.324224 23.6449C0.045253 23.2153 0.0596567 22.6583 0.360457 22.2437L1.96051 20.0384L0.360457 17.833C0.0596574 17.4185 0.0452532 16.8614 0.324224 16.4319L1.75788 14.2242C2.03685 13.7946 2.55157 13.5812 3.05266 13.6874L5.27973 14.1593L6.04126 12.1793C6.22513 11.7012 6.68445 11.3857 7.19666 11.3857ZM8.51281 23.3522C10.3644 23.3522 11.8655 21.8512 11.8655 19.9995C11.8655 18.1479 10.3644 16.6469 8.51281 16.6469C6.66118 16.6469 5.16013 18.1479 5.16013 19.9995C5.16013 21.8512 6.66118 23.3522 8.51281 23.3522Z" fill="white"/>
</svg>
