<svg width="225" height="61" viewBox="0 0 225 61" fill="none" xmlns="http://www.w3.org/2000/svg">
<rect width="183.086" height="61" rx="8" fill="#EBF8EF"/>
<rect x="15" y="5" width="51" height="51" rx="25.5" fill="#F0F0F0"/>
<path d="M35.1053 37.4934H45.8949C46.7777 37.4934 47.4934 36.7777 47.4934 35.8949V25.1053C47.4934 24.2225 46.7777 23.5068 45.8949 23.5068H35.1053C34.2225 23.5068 33.5068 24.2225 33.5068 25.1053V35.8949C33.5068 36.7777 34.2225 37.4934 35.1053 37.4934Z" stroke="#ADADAD" stroke-width="0.948281"/>
<path d="M40.2603 33.837L37.4778 31.624C37.129 31.3465 36.6206 31.408 36.348 31.7606L33.5068 35.4354V35.895C33.5068 36.7778 34.2225 37.4935 35.1053 37.4935H45.8949C46.7777 37.4935 47.4934 36.7778 47.4934 35.895V32.8779L44.4269 29.371C44.0797 28.9739 43.4497 29.0162 43.1587 29.4561L40.2603 33.837Z" fill="#ADADAD"/>
<path d="M39.521 28.1624C39.2341 27.8755 38.769 27.8755 38.482 28.1624C38.1951 28.4494 38.1951 28.9145 38.482 29.2014C38.769 29.4884 39.2341 29.4884 39.521 29.2014C39.808 28.9145 39.808 28.4494 39.521 28.1624Z" fill="#ADADAD"/>
<path d="M81.691 17.426V23.042C81.691 23.6573 81.8513 24.1297 82.172 24.459C82.4927 24.7797 82.9433 24.94 83.524 24.94C84.1133 24.94 84.5683 24.7797 84.889 24.459C85.2097 24.1297 85.37 23.6573 85.37 23.042V17.426H87.203V23.029C87.203 23.8003 87.034 24.4547 86.696 24.992C86.3667 25.5207 85.9203 25.9193 85.357 26.188C84.8023 26.4567 84.1827 26.591 83.498 26.591C82.822 26.591 82.2067 26.4567 81.652 26.188C81.106 25.9193 80.6727 25.5207 80.352 24.992C80.0313 24.4547 79.871 23.8003 79.871 23.029V17.426H81.691ZM91.7175 26.617C91.1281 26.617 90.5995 26.513 90.1315 26.305C89.6635 26.0883 89.2908 25.798 89.0135 25.434C88.7448 25.07 88.5975 24.667 88.5715 24.225H90.4045C90.4391 24.5023 90.5735 24.732 90.8075 24.914C91.0501 25.096 91.3491 25.187 91.7045 25.187C92.0511 25.187 92.3198 25.1177 92.5105 24.979C92.7098 24.8403 92.8095 24.6627 92.8095 24.446C92.8095 24.212 92.6881 24.0387 92.4455 23.926C92.2115 23.8047 91.8345 23.6747 91.3145 23.536C90.7771 23.406 90.3351 23.2717 89.9885 23.133C89.6505 22.9943 89.3558 22.782 89.1045 22.496C88.8618 22.21 88.7405 21.8243 88.7405 21.339C88.7405 20.9403 88.8531 20.5763 89.0785 20.247C89.3125 19.9177 89.6418 19.6577 90.0665 19.467C90.4998 19.2763 91.0068 19.181 91.5875 19.181C92.4455 19.181 93.1301 19.3977 93.6415 19.831C94.1528 20.2557 94.4345 20.832 94.4865 21.56H92.7445C92.7185 21.274 92.5971 21.0487 92.3805 20.884C92.1725 20.7107 91.8908 20.624 91.5355 20.624C91.2061 20.624 90.9505 20.6847 90.7685 20.806C90.5951 20.9273 90.5085 21.0963 90.5085 21.313C90.5085 21.5557 90.6298 21.742 90.8725 21.872C91.1151 21.9933 91.4921 22.119 92.0035 22.249C92.5235 22.379 92.9525 22.5133 93.2905 22.652C93.6285 22.7907 93.9188 23.0073 94.1615 23.302C94.4128 23.588 94.5428 23.9693 94.5515 24.446C94.5515 24.862 94.4345 25.2347 94.2005 25.564C93.9751 25.8933 93.6458 26.1533 93.2125 26.344C92.7878 26.526 92.2895 26.617 91.7175 26.617ZM102.74 22.743C102.74 23.003 102.723 23.237 102.688 23.445H97.4234C97.4668 23.965 97.6488 24.3723 97.9694 24.667C98.2901 24.9617 98.6844 25.109 99.1524 25.109C99.8284 25.109 100.309 24.8187 100.595 24.238H102.558C102.35 24.9313 101.952 25.5033 101.362 25.954C100.773 26.396 100.049 26.617 99.1914 26.617C98.4981 26.617 97.8741 26.4653 97.3194 26.162C96.7734 25.85 96.3444 25.4123 96.0324 24.849C95.7291 24.2857 95.5774 23.6357 95.5774 22.899C95.5774 22.1537 95.7291 21.4993 96.0324 20.936C96.3358 20.3727 96.7604 19.9393 97.3064 19.636C97.8524 19.3327 98.4808 19.181 99.1914 19.181C99.8761 19.181 100.487 19.3283 101.024 19.623C101.57 19.9177 101.991 20.338 102.285 20.884C102.589 21.4213 102.74 22.041 102.74 22.743ZM100.855 22.223C100.847 21.755 100.678 21.3823 100.348 21.105C100.019 20.819 99.6161 20.676 99.1394 20.676C98.6888 20.676 98.3074 20.8147 97.9954 21.092C97.6921 21.3607 97.5058 21.7377 97.4364 22.223H100.855ZM105.889 20.416C106.123 20.0347 106.426 19.7357 106.799 19.519C107.18 19.3023 107.614 19.194 108.099 19.194V21.105H107.618C107.046 21.105 106.613 21.2393 106.318 21.508C106.032 21.7767 105.889 22.2447 105.889 22.912V26.5H104.069V19.298H105.889V20.416ZM120.183 26.5H118.363L114.242 20.273V26.5H112.422V17.413H114.242L118.363 23.653V17.413H120.183V26.5ZM121.514 22.873C121.514 22.145 121.657 21.4993 121.943 20.936C122.238 20.3727 122.632 19.9393 123.126 19.636C123.629 19.3327 124.188 19.181 124.803 19.181C125.34 19.181 125.808 19.2893 126.207 19.506C126.614 19.7227 126.939 19.9957 127.182 20.325V19.298H129.015V26.5H127.182V25.447C126.948 25.785 126.623 26.0667 126.207 26.292C125.8 26.5087 125.327 26.617 124.79 26.617C124.183 26.617 123.629 26.461 123.126 26.149C122.632 25.837 122.238 25.3993 121.943 24.836C121.657 24.264 121.514 23.6097 121.514 22.873ZM127.182 22.899C127.182 22.457 127.095 22.08 126.922 21.768C126.749 21.4473 126.515 21.2047 126.22 21.04C125.925 20.8667 125.609 20.78 125.271 20.78C124.933 20.78 124.621 20.8623 124.335 21.027C124.049 21.1917 123.815 21.4343 123.633 21.755C123.46 22.067 123.373 22.4397 123.373 22.873C123.373 23.3063 123.46 23.6877 123.633 24.017C123.815 24.3377 124.049 24.5847 124.335 24.758C124.63 24.9313 124.942 25.018 125.271 25.018C125.609 25.018 125.925 24.9357 126.22 24.771C126.515 24.5977 126.749 24.355 126.922 24.043C127.095 23.7223 127.182 23.341 127.182 22.899ZM139.737 19.194C140.621 19.194 141.331 19.467 141.869 20.013C142.415 20.5503 142.688 21.3043 142.688 22.275V26.5H140.868V22.522C140.868 21.9587 140.725 21.5297 140.439 21.235C140.153 20.9317 139.763 20.78 139.269 20.78C138.775 20.78 138.38 20.9317 138.086 21.235C137.8 21.5297 137.657 21.9587 137.657 22.522V26.5H135.837V22.522C135.837 21.9587 135.694 21.5297 135.408 21.235C135.122 20.9317 134.732 20.78 134.238 20.78C133.735 20.78 133.336 20.9317 133.042 21.235C132.756 21.5297 132.613 21.9587 132.613 22.522V26.5H130.793V19.298H132.613V20.169C132.847 19.8657 133.146 19.6273 133.51 19.454C133.882 19.2807 134.29 19.194 134.732 19.194C135.295 19.194 135.798 19.3153 136.24 19.558C136.682 19.792 137.024 20.13 137.267 20.572C137.501 20.156 137.839 19.8223 138.281 19.571C138.731 19.3197 139.217 19.194 139.737 19.194ZM151.11 22.743C151.11 23.003 151.092 23.237 151.058 23.445H145.793C145.836 23.965 146.018 24.3723 146.339 24.667C146.659 24.9617 147.054 25.109 147.522 25.109C148.198 25.109 148.679 24.8187 148.965 24.238H150.928C150.72 24.9313 150.321 25.5033 149.732 25.954C149.142 26.396 148.419 26.617 147.561 26.617C146.867 26.617 146.243 26.4653 145.689 26.162C145.143 25.85 144.714 25.4123 144.402 24.849C144.098 24.2857 143.947 23.6357 143.947 22.899C143.947 22.1537 144.098 21.4993 144.402 20.936C144.705 20.3727 145.13 19.9393 145.676 19.636C146.222 19.3327 146.85 19.181 147.561 19.181C148.245 19.181 148.856 19.3283 149.394 19.623C149.94 19.9177 150.36 20.338 150.655 20.884C150.958 21.4213 151.11 22.041 151.11 22.743ZM149.225 22.223C149.216 21.755 149.047 21.3823 148.718 21.105C148.388 20.819 147.985 20.676 147.509 20.676C147.058 20.676 146.677 20.8147 146.365 21.092C146.061 21.3607 145.875 21.7377 145.806 22.223H149.225Z" fill="black"/>
<path d="M85.936 38.716C85.936 39.164 85.828 39.584 85.612 39.976C85.404 40.368 85.072 40.684 84.616 40.924C84.168 41.164 83.6 41.284 82.912 41.284H81.508V44.5H79.828V36.124H82.912C83.56 36.124 84.112 36.236 84.568 36.46C85.024 36.684 85.364 36.992 85.588 37.384C85.82 37.776 85.936 38.22 85.936 38.716ZM82.84 39.928C83.304 39.928 83.648 39.824 83.872 39.616C84.096 39.4 84.208 39.1 84.208 38.716C84.208 37.9 83.752 37.492 82.84 37.492H81.508V39.928H82.84ZM88.8088 38.884C89.0248 38.532 89.3048 38.256 89.6488 38.056C90.0008 37.856 90.4008 37.756 90.8488 37.756V39.52H90.4048C89.8768 39.52 89.4768 39.644 89.2048 39.892C88.9408 40.14 88.8088 40.572 88.8088 41.188V44.5H87.1288V37.852H88.8088V38.884ZM94.9323 44.608C94.2923 44.608 93.7163 44.468 93.2043 44.188C92.6923 43.9 92.2883 43.496 91.9923 42.976C91.7043 42.456 91.5603 41.856 91.5603 41.176C91.5603 40.496 91.7083 39.896 92.0043 39.376C92.3083 38.856 92.7203 38.456 93.2403 38.176C93.7603 37.888 94.3403 37.744 94.9803 37.744C95.6203 37.744 96.2003 37.888 96.7203 38.176C97.2403 38.456 97.6483 38.856 97.9443 39.376C98.2483 39.896 98.4003 40.496 98.4003 41.176C98.4003 41.856 98.2443 42.456 97.9323 42.976C97.6283 43.496 97.2123 43.9 96.6843 44.188C96.1643 44.468 95.5803 44.608 94.9323 44.608ZM94.9323 43.144C95.2363 43.144 95.5203 43.072 95.7843 42.928C96.0563 42.776 96.2723 42.552 96.4323 42.256C96.5923 41.96 96.6723 41.6 96.6723 41.176C96.6723 40.544 96.5043 40.06 96.1683 39.724C95.8403 39.38 95.4363 39.208 94.9563 39.208C94.4763 39.208 94.0723 39.38 93.7443 39.724C93.4243 40.06 93.2643 40.544 93.2643 41.176C93.2643 41.808 93.4203 42.296 93.7323 42.64C94.0523 42.976 94.4523 43.144 94.9323 43.144ZM102.681 39.232H101.517V44.5H99.8127V39.232H99.0567V37.852H99.8127V37.516C99.8127 36.7 100.045 36.1 100.509 35.716C100.973 35.332 101.673 35.152 102.609 35.176V36.592C102.201 36.584 101.917 36.652 101.757 36.796C101.597 36.94 101.517 37.2 101.517 37.576V37.852H102.681V39.232ZM109.949 41.032C109.949 41.272 109.933 41.488 109.901 41.68H105.041C105.081 42.16 105.249 42.536 105.545 42.808C105.841 43.08 106.205 43.216 106.637 43.216C107.261 43.216 107.705 42.948 107.969 42.412H109.781C109.589 43.052 109.221 43.58 108.677 43.996C108.133 44.404 107.465 44.608 106.673 44.608C106.033 44.608 105.457 44.468 104.945 44.188C104.441 43.9 104.045 43.496 103.757 42.976C103.477 42.456 103.337 41.856 103.337 41.176C103.337 40.488 103.477 39.884 103.757 39.364C104.037 38.844 104.429 38.444 104.933 38.164C105.437 37.884 106.017 37.744 106.673 37.744C107.305 37.744 107.869 37.88 108.365 38.152C108.869 38.424 109.257 38.812 109.529 39.316C109.809 39.812 109.949 40.384 109.949 41.032ZM108.209 40.552C108.201 40.12 108.045 39.776 107.741 39.52C107.437 39.256 107.065 39.124 106.625 39.124C106.209 39.124 105.857 39.252 105.569 39.508C105.289 39.756 105.117 40.104 105.053 40.552H108.209ZM113.72 44.608C113.176 44.608 112.688 44.512 112.256 44.32C111.824 44.12 111.48 43.852 111.224 43.516C110.976 43.18 110.84 42.808 110.816 42.4H112.508C112.54 42.656 112.664 42.868 112.88 43.036C113.104 43.204 113.38 43.288 113.708 43.288C114.028 43.288 114.276 43.224 114.452 43.096C114.636 42.968 114.728 42.804 114.728 42.604C114.728 42.388 114.616 42.228 114.392 42.124C114.176 42.012 113.828 41.892 113.348 41.764C112.852 41.644 112.444 41.52 112.124 41.392C111.812 41.264 111.54 41.068 111.308 40.804C111.084 40.54 110.972 40.184 110.972 39.736C110.972 39.368 111.076 39.032 111.284 38.728C111.5 38.424 111.804 38.184 112.196 38.008C112.596 37.832 113.064 37.744 113.6 37.744C114.392 37.744 115.024 37.944 115.496 38.344C115.968 38.736 116.228 39.268 116.276 39.94H114.668C114.644 39.676 114.532 39.468 114.332 39.316C114.14 39.156 113.88 39.076 113.552 39.076C113.248 39.076 113.012 39.132 112.844 39.244C112.684 39.356 112.604 39.512 112.604 39.712C112.604 39.936 112.716 40.108 112.94 40.228C113.164 40.34 113.512 40.456 113.984 40.576C114.464 40.696 114.86 40.82 115.172 40.948C115.484 41.076 115.752 41.276 115.976 41.548C116.208 41.812 116.328 42.164 116.336 42.604C116.336 42.988 116.228 43.332 116.012 43.636C115.804 43.94 115.5 44.18 115.1 44.356C114.708 44.524 114.248 44.608 113.72 44.608ZM120.259 44.608C119.715 44.608 119.227 44.512 118.795 44.32C118.363 44.12 118.019 43.852 117.763 43.516C117.515 43.18 117.379 42.808 117.355 42.4H119.047C119.079 42.656 119.203 42.868 119.419 43.036C119.643 43.204 119.919 43.288 120.247 43.288C120.567 43.288 120.815 43.224 120.991 43.096C121.175 42.968 121.267 42.804 121.267 42.604C121.267 42.388 121.155 42.228 120.931 42.124C120.715 42.012 120.367 41.892 119.887 41.764C119.391 41.644 118.983 41.52 118.663 41.392C118.351 41.264 118.079 41.068 117.847 40.804C117.623 40.54 117.511 40.184 117.511 39.736C117.511 39.368 117.615 39.032 117.823 38.728C118.039 38.424 118.343 38.184 118.735 38.008C119.135 37.832 119.603 37.744 120.139 37.744C120.931 37.744 121.563 37.944 122.035 38.344C122.507 38.736 122.767 39.268 122.815 39.94H121.207C121.183 39.676 121.071 39.468 120.871 39.316C120.679 39.156 120.419 39.076 120.091 39.076C119.787 39.076 119.551 39.132 119.383 39.244C119.223 39.356 119.143 39.512 119.143 39.712C119.143 39.936 119.255 40.108 119.479 40.228C119.703 40.34 120.051 40.456 120.523 40.576C121.003 40.696 121.399 40.82 121.711 40.948C122.023 41.076 122.291 41.276 122.515 41.548C122.747 41.812 122.867 42.164 122.875 42.604C122.875 42.988 122.767 43.332 122.551 43.636C122.343 43.94 122.039 44.18 121.639 44.356C121.247 44.524 120.787 44.608 120.259 44.608ZM127.206 44.608C126.566 44.608 125.99 44.468 125.478 44.188C124.966 43.9 124.562 43.496 124.266 42.976C123.978 42.456 123.834 41.856 123.834 41.176C123.834 40.496 123.982 39.896 124.278 39.376C124.582 38.856 124.994 38.456 125.514 38.176C126.034 37.888 126.614 37.744 127.254 37.744C127.894 37.744 128.474 37.888 128.994 38.176C129.514 38.456 129.922 38.856 130.218 39.376C130.522 39.896 130.674 40.496 130.674 41.176C130.674 41.856 130.518 42.456 130.206 42.976C129.902 43.496 129.486 43.9 128.958 44.188C128.438 44.468 127.854 44.608 127.206 44.608ZM127.206 43.144C127.51 43.144 127.794 43.072 128.058 42.928C128.33 42.776 128.546 42.552 128.706 42.256C128.866 41.96 128.946 41.6 128.946 41.176C128.946 40.544 128.778 40.06 128.442 39.724C128.114 39.38 127.71 39.208 127.23 39.208C126.75 39.208 126.346 39.38 126.018 39.724C125.698 40.06 125.538 40.544 125.538 41.176C125.538 41.808 125.694 42.296 126.006 42.64C126.326 42.976 126.726 43.144 127.206 43.144ZM133.586 38.884C133.802 38.532 134.082 38.256 134.426 38.056C134.778 37.856 135.178 37.756 135.626 37.756V39.52H135.182C134.654 39.52 134.254 39.644 133.982 39.892C133.718 40.14 133.586 40.572 133.586 41.188V44.5H131.906V37.852H133.586V38.884Z" fill="black"/>
<path d="M146.304 38.6435C145.638 37.9371 146.139 36.7764 147.11 36.7764H156.977C157.948 36.7764 158.449 37.9371 157.782 38.6435L152.849 43.8751C152.412 44.3386 151.675 44.3386 151.238 43.8751L146.304 38.6435Z" fill="#118D3B"/>
<path d="M216.586 35.0509V36.0509C216.586 36.8465 216.27 37.6096 215.708 38.1722C215.145 38.7348 214.382 39.0509 213.586 39.0509C212.791 39.0509 212.028 38.7348 211.465 38.1722C210.903 37.6096 210.586 36.8465 210.586 36.0509V35.0509M216.586 35.0509H210.586M216.586 35.0509H220.177C220.56 35.0509 220.752 35.0509 220.907 34.9989C221.052 34.9495 221.185 34.8671 221.293 34.7582C221.402 34.6493 221.484 34.5167 221.534 34.3708C221.587 34.2148 221.587 34.0228 221.587 33.6368C221.587 33.4678 221.587 33.3838 221.573 33.3028C221.548 33.1514 221.489 33.0077 221.4 32.8828C221.352 32.8158 221.292 32.7558 221.173 32.6368L220.783 32.2468C220.72 32.1846 220.671 32.1107 220.637 32.0293C220.604 31.948 220.586 31.8608 220.587 31.7728V28.0508C220.587 27.1316 220.405 26.2213 220.054 25.372C219.702 24.5227 219.186 23.7511 218.536 23.101C217.886 22.451 217.115 21.9354 216.265 21.5836C215.416 21.2318 214.506 21.0508 213.586 21.0508C212.667 21.0508 211.757 21.2318 210.908 21.5836C210.058 21.9354 209.287 22.451 208.637 23.101C207.987 23.7511 207.471 24.5227 207.119 25.372C206.767 26.2213 206.586 27.1316 206.586 28.0508V31.7728C206.586 31.8608 206.569 31.948 206.536 32.0293C206.502 32.1107 206.453 32.1846 206.39 32.2468L206 32.6368C205.88 32.7568 205.821 32.8158 205.774 32.8818C205.684 33.0068 205.625 33.1509 205.599 33.3028C205.586 33.3828 205.586 33.4678 205.586 33.6368C205.586 34.0228 205.586 34.2148 205.638 34.3708C205.688 34.5169 205.77 34.6496 205.879 34.7586C205.988 34.8675 206.121 34.9498 206.267 34.9989C206.422 35.0509 206.613 35.0509 206.996 35.0509H210.586" stroke="black" stroke-width="3.10079" stroke-linecap="round" stroke-linejoin="round"/>
</svg>
